<svg width="56" height="35" viewBox="0 0 56 35" fill="none" xmlns="http://www.w3.org/2000/svg">
<path d="M10.4078 12.4497H0L10.986 34.9999H21.3937L10.4078 12.4497Z" fill="url(#paint0_linear_50_310)"/>
<path d="M31.8018 6.6676H21.394L33.151 34.9999H43.5587L31.8018 6.6676Z" fill="url(#paint1_linear_50_310)"/>
<path d="M21.3935 6.6676H31.8013L21.3935 34.9999H10.9857L21.3935 6.6676Z" fill="url(#paint2_linear_50_310)"/>
<path fill-rule="evenodd" clip-rule="evenodd" d="M15.46 22.8203L10.9858 34.9999H21.3936L15.46 22.8203Z" fill="url(#paint3_linear_50_310)"/>
<path fill-rule="evenodd" clip-rule="evenodd" d="M10.9858 34.9999H21.3936L15.46 22.8203L10.9858 34.9999Z" fill="url(#paint4_linear_50_310)"/>
<path d="M44.9077 0.500122H55.3154L43.3658 34.9999H32.958L44.9077 0.500122Z" fill="url(#paint5_linear_50_310)"/>
<path fill-rule="evenodd" clip-rule="evenodd" d="M37.7807 21.0765L33.0457 34.747L33.1507 35.0001H43.5585L43.4535 34.747L37.7807 21.0765Z" fill="url(#paint6_linear_50_310)"/>
<path fill-rule="evenodd" clip-rule="evenodd" d="M43.3658 35.0001L43.4535 34.747L37.7807 21.0765L33.0457 34.747L32.958 35.0001H43.3658Z" fill="url(#paint7_linear_50_310)"/>
<defs>
<linearGradient id="paint0_linear_50_310" x1="10.6969" y1="12.4497" x2="10.6969" y2="34.9999" gradientUnits="userSpaceOnUse">
<stop stop-color="#6275F6"/>
<stop offset="1" stop-color="#82E8FE"/>
</linearGradient>
<linearGradient id="paint1_linear_50_310" x1="32.4764" y1="6.6676" x2="32.4764" y2="34.9999" gradientUnits="userSpaceOnUse">
<stop stop-color="#C31A62"/>
<stop offset="1" stop-color="#EF0820"/>
</linearGradient>
<linearGradient id="paint2_linear_50_310" x1="21.3935" y1="6.6676" x2="21.3935" y2="34.9999" gradientUnits="userSpaceOnUse">
<stop stop-color="#8C31A2"/>
<stop offset="1" stop-color="#BF1B66"/>
</linearGradient>
<linearGradient id="paint3_linear_50_310" x1="16.1897" y1="22.8203" x2="16.1897" y2="34.9999" gradientUnits="userSpaceOnUse">
<stop stop-color="#6270F4"/>
<stop offset="1" stop-color="#84EBFD"/>
</linearGradient>
<linearGradient id="paint4_linear_50_310" x1="16.1897" y1="22.8203" x2="16.1897" y2="34.9999" gradientUnits="userSpaceOnUse">
<stop stop-color="#6270F4"/>
<stop offset="1" stop-color="#84EBFD"/>
</linearGradient>
<linearGradient id="paint5_linear_50_310" x1="44.1367" y1="0.500122" x2="44.1367" y2="34.9999" gradientUnits="userSpaceOnUse">
<stop stop-color="#F8E64C"/>
<stop offset="1" stop-color="#EB3E49"/>
</linearGradient>
<linearGradient id="paint6_linear_50_310" x1="38.2583" y1="21.0765" x2="38.2583" y2="35.0001" gradientUnits="userSpaceOnUse">
<stop stop-color="#FF344C"/>
<stop offset="1" stop-color="#FF6F5B"/>
</linearGradient>
<linearGradient id="paint7_linear_50_310" x1="38.2583" y1="21.0765" x2="38.2583" y2="35.0001" gradientUnits="userSpaceOnUse">
<stop stop-color="#FF344C"/>
<stop offset="1" stop-color="#FF6F5B"/>
</linearGradient>
</defs>
</svg>
