<svg width="219" height="35" viewBox="0 0 219 35" fill="none" xmlns="http://www.w3.org/2000/svg">
<g clip-path="url(#clip0_50_309)">
<path d="M10.4078 12.4497H0L10.986 34.9999H21.3937L10.4078 12.4497Z" fill="url(#paint0_linear_50_309)"/>
<path d="M31.8018 6.6676H21.394L33.151 34.9999H43.5587L31.8018 6.6676Z" fill="url(#paint1_linear_50_309)"/>
<path d="M21.3935 6.6676H31.8013L21.3935 34.9999H10.9857L21.3935 6.6676Z" fill="url(#paint2_linear_50_309)"/>
<path fill-rule="evenodd" clip-rule="evenodd" d="M15.46 22.8203L10.9858 34.9999H21.3936L15.46 22.8203Z" fill="url(#paint3_linear_50_309)"/>
<path fill-rule="evenodd" clip-rule="evenodd" d="M10.9858 34.9999H21.3936L15.46 22.8203L10.9858 34.9999Z" fill="url(#paint4_linear_50_309)"/>
<path d="M44.9077 0.500122H55.3154L43.3658 34.9999H32.958L44.9077 0.500122Z" fill="url(#paint5_linear_50_309)"/>
<path fill-rule="evenodd" clip-rule="evenodd" d="M37.7807 21.0765L33.0457 34.747L33.1507 35.0001H43.5585L43.4535 34.747L37.7807 21.0765Z" fill="url(#paint6_linear_50_309)"/>
<path fill-rule="evenodd" clip-rule="evenodd" d="M43.3658 35.0001L43.4535 34.747L37.7807 21.0765L33.0457 34.747L32.958 35.0001H43.3658Z" fill="url(#paint7_linear_50_309)"/>
<path d="M72.4465 15.288H64.3916V10.7707H86.3268V15.288H78.2719V34.7263H72.4465V15.288Z" fill="#191B21"/>
<path d="M96.3046 35C94.267 35 92.433 34.6008 90.8029 33.8023C89.1967 32.9809 87.9381 31.8516 87.0271 30.4143C86.1162 28.9769 85.6607 27.3457 85.6607 25.5205C85.6607 23.6953 86.1162 22.064 87.0271 20.6267C87.9381 19.1894 89.1967 18.0714 90.8029 17.2729C92.433 16.4516 94.267 16.0409 96.3046 16.0409C98.3423 16.0409 100.164 16.4516 101.77 17.2729C103.377 18.0714 104.635 19.1894 105.546 20.6267C106.457 22.064 106.913 23.6953 106.913 25.5205C106.913 27.3457 106.457 28.9769 105.546 30.4143C104.635 31.8516 103.377 32.9809 101.77 33.8023C100.164 34.6008 98.3423 35 96.3046 35ZM96.3046 30.6196C97.743 30.6196 98.9177 30.1633 99.8287 29.2507C100.764 28.3153 101.231 27.0719 101.231 25.5205C101.231 23.9691 100.764 22.7371 99.8287 21.8245C98.9177 20.8891 97.743 20.4214 96.3046 20.4214C94.8663 20.4214 93.6796 20.8891 92.7447 21.8245C91.8097 22.7371 91.3423 23.9691 91.3423 25.5205C91.3423 27.0719 91.8097 28.3153 92.7447 29.2507C93.6796 30.1633 94.8663 30.6196 96.3046 30.6196Z" fill="#191B21"/>
<path d="M118.969 27.5054L116.272 30.0378V34.7263H110.662V9.33337H116.272V23.7067L124.471 16.3147H131.159L123.104 24.1174L131.878 34.7263H125.082L118.969 27.5054Z" fill="#191B21"/>
<path d="M146.019 16.0409C148.417 16.0409 150.346 16.7254 151.809 18.0943C153.295 19.4632 154.038 21.4937 154.038 24.1858V34.7263H148.429V25.0072C148.429 23.547 148.093 22.4633 147.422 21.756C146.75 21.026 145.78 20.6609 144.509 20.6609C143.095 20.6609 141.968 21.083 141.129 21.9272C140.29 22.7485 139.87 23.9805 139.87 25.6232V34.7263H134.261V16.3147H139.618V18.4707C140.362 17.695 141.285 17.1018 142.387 16.6912C143.49 16.2577 144.701 16.0409 146.019 16.0409Z" fill="#191B21"/>
<path d="M178.284 25.5889C178.284 25.6574 178.248 26.1365 178.176 27.0263H163.541C163.805 28.167 164.428 29.0682 165.411 29.7298C166.394 30.3914 167.616 30.7223 169.079 30.7223C170.086 30.7223 170.973 30.5854 171.74 30.3116C172.531 30.015 173.262 29.5587 173.933 28.9427L176.918 32.0227C175.096 34.0076 172.435 35 168.935 35C166.753 35 164.824 34.6008 163.145 33.8023C161.467 32.9809 160.173 31.8516 159.262 30.4143C158.351 28.9769 157.895 27.3457 157.895 25.5205C157.895 23.7181 158.339 22.0983 159.226 20.6609C160.137 19.2008 161.371 18.0714 162.93 17.2729C164.512 16.4516 166.274 16.0409 168.216 16.0409C170.11 16.0409 171.824 16.4288 173.358 17.2045C174.892 17.9802 176.091 19.0981 176.954 20.5583C177.841 21.9956 178.284 23.6725 178.284 25.5889ZM168.252 20.0792C166.981 20.0792 165.914 20.4214 165.051 21.1058C164.188 21.7903 163.661 22.7257 163.469 23.912H172.998C172.806 22.7485 172.279 21.8245 171.416 21.14C170.553 20.4328 169.498 20.0792 168.252 20.0792Z" fill="#191B21"/>
<path d="M187.377 18.7445C188.048 17.8547 188.947 17.1817 190.074 16.7254C191.225 16.2691 192.543 16.0409 194.029 16.0409V20.9689C193.406 20.9233 192.987 20.9005 192.771 20.9005C191.165 20.9005 189.906 21.334 188.995 22.2009C188.084 23.0451 187.629 24.3227 187.629 26.0338V34.7263H182.019V16.3147H187.377V18.7445Z" fill="#191B21"/>
<path d="M203.944 35C202.338 35 200.767 34.8175 199.233 34.4525C197.699 34.0646 196.476 33.5855 195.565 33.0152L197.435 29.1823C198.298 29.707 199.341 30.1405 200.564 30.4827C201.786 30.8021 202.985 30.9618 204.16 30.9618C206.533 30.9618 207.72 30.4029 207.72 29.2849C207.72 28.7602 207.396 28.3837 206.749 28.1556C206.101 27.9274 205.106 27.7335 203.764 27.5738C202.182 27.3457 200.875 27.0833 199.844 26.7867C198.814 26.4901 197.915 25.9654 197.147 25.2125C196.404 24.4596 196.033 23.3873 196.033 21.9956C196.033 20.832 196.38 19.8054 197.076 18.9156C197.795 18.003 198.826 17.2957 200.168 16.7938C201.535 16.2919 203.141 16.0409 204.987 16.0409C206.353 16.0409 207.708 16.1892 209.05 16.4858C210.416 16.7596 211.543 17.1474 212.43 17.6494L210.56 21.448C208.858 20.5354 207 20.0792 204.987 20.0792C203.788 20.0792 202.889 20.2389 202.29 20.5583C201.69 20.8777 201.391 21.2883 201.391 21.7903C201.391 22.3606 201.714 22.7599 202.362 22.988C203.009 23.2162 204.04 23.4329 205.454 23.6383C207.036 23.8892 208.331 24.163 209.338 24.4596C210.345 24.7334 211.22 25.2467 211.963 25.9996C212.706 26.7525 213.077 27.802 213.077 29.148C213.077 30.2888 212.718 31.304 211.999 32.1938C211.279 33.0836 210.225 33.7794 208.834 34.2814C207.468 34.7605 205.838 35 203.944 35Z" fill="#191B21"/>
</g>
<defs>
<linearGradient id="paint0_linear_50_309" x1="10.6969" y1="12.4497" x2="10.6969" y2="34.9999" gradientUnits="userSpaceOnUse">
<stop stop-color="#6275F6"/>
<stop offset="1" stop-color="#82E8FE"/>
</linearGradient>
<linearGradient id="paint1_linear_50_309" x1="32.4764" y1="6.6676" x2="32.4764" y2="34.9999" gradientUnits="userSpaceOnUse">
<stop stop-color="#C31A62"/>
<stop offset="1" stop-color="#EF0820"/>
</linearGradient>
<linearGradient id="paint2_linear_50_309" x1="21.3935" y1="6.6676" x2="21.3935" y2="34.9999" gradientUnits="userSpaceOnUse">
<stop stop-color="#8C31A2"/>
<stop offset="1" stop-color="#BF1B66"/>
</linearGradient>
<linearGradient id="paint3_linear_50_309" x1="16.1897" y1="22.8203" x2="16.1897" y2="34.9999" gradientUnits="userSpaceOnUse">
<stop stop-color="#6270F4"/>
<stop offset="1" stop-color="#84EBFD"/>
</linearGradient>
<linearGradient id="paint4_linear_50_309" x1="16.1897" y1="22.8203" x2="16.1897" y2="34.9999" gradientUnits="userSpaceOnUse">
<stop stop-color="#6270F4"/>
<stop offset="1" stop-color="#84EBFD"/>
</linearGradient>
<linearGradient id="paint5_linear_50_309" x1="44.1367" y1="0.500122" x2="44.1367" y2="34.9999" gradientUnits="userSpaceOnUse">
<stop stop-color="#F8E64C"/>
<stop offset="1" stop-color="#EB3E49"/>
</linearGradient>
<linearGradient id="paint6_linear_50_309" x1="38.2583" y1="21.0765" x2="38.2583" y2="35.0001" gradientUnits="userSpaceOnUse">
<stop stop-color="#FF344C"/>
<stop offset="1" stop-color="#FF6F5B"/>
</linearGradient>
<linearGradient id="paint7_linear_50_309" x1="38.2583" y1="21.0765" x2="38.2583" y2="35.0001" gradientUnits="userSpaceOnUse">
<stop stop-color="#FF344C"/>
<stop offset="1" stop-color="#FF6F5B"/>
</linearGradient>
<clipPath id="clip0_50_309">
<rect width="219" height="35" fill="white"/>
</clipPath>
</defs>
</svg>
