<svg width="2870" height="3030" viewBox="0 0 2870 3030" fill="none" xmlns="http://www.w3.org/2000/svg">
<path opacity="0.02" d="M336.333 1307.28C214.371 1218.14 238.313 1112.85 265.529 1071.35L639.601 423.439L2868.96 1710.56L2494.89 2358.47C2472.55 2402.79 2393.34 2476.17 2255.16 2415.12C2082.44 2338.8 2051.36 2402.78 1997.75 2438.14C1944.13 2473.51 1875.86 2500.41 1759.52 2380.57C1643.17 2260.74 1514.55 2168.92 1356.49 2202.5C1230.05 2229.37 1144.62 2191.36 1115 2174.26C1085.39 2157.16 1009.75 2102.18 969.799 1979.24C919.855 1825.58 776.032 1760.09 614.076 1719.25C452.119 1678.41 441.287 1605.84 445.103 1541.73C448.918 1477.61 488.786 1418.71 336.333 1307.28Z" fill="black"/>
<path d="M467.278 1169.21C381.264 1069.63 422.241 984.972 453.482 955.091L898.066 478.634L2537.48 2008.38L2092.89 2484.83C2065.24 2518.06 1983.62 2564.8 1878.33 2485.87C1746.73 2387.22 1707.8 2435.41 1655.36 2454.9C1602.92 2474.39 1539.7 2483.83 1464.48 2359.3C1389.25 2234.77 1298.11 2131.62 1157.39 2129.11C1044.81 2127.1 979.768 2078.07 957.991 2057.75C936.215 2037.43 882.812 1975.93 873.026 1863.76C860.792 1723.55 751.584 1639.76 622.152 1573.32C492.721 1506.89 497.768 1443.17 513.586 1389.51C529.404 1335.85 574.795 1293.68 467.278 1169.21Z" fill="black"/>
<path d="M467.278 1169.21C381.264 1069.63 422.241 984.972 453.482 955.091L898.066 478.634L2537.48 2008.38L2092.89 2484.83C2065.24 2518.06 1983.62 2564.8 1878.33 2485.87C1746.73 2387.22 1707.8 2435.41 1655.36 2454.9C1602.92 2474.39 1539.7 2483.83 1464.48 2359.3C1389.25 2234.77 1298.11 2131.62 1157.39 2129.11C1044.81 2127.1 979.768 2078.07 957.991 2057.75C936.215 2037.43 882.812 1975.93 873.026 1863.76C860.792 1723.55 751.584 1639.76 622.152 1573.32C492.721 1506.89 497.768 1443.17 513.586 1389.51C529.404 1335.85 574.795 1293.68 467.278 1169.21Z" fill="url(#paint0_linear_83_3159)"/>
<path d="M586.358 434.954C552.214 307.877 625.931 249.468 667.058 236.148L1274.61 0.470087L2085.54 2090.96L1477.99 2326.64C1438.64 2344.54 1344.81 2351.12 1284.33 2234.26C1208.73 2088.19 1152.71 2114.66 1097.02 2109.4C1041.32 2104.14 980.293 2085.15 966.714 1940.3C953.135 1795.45 915.93 1662.92 790.308 1599.46C689.81 1548.69 652.559 1476.25 641.787 1448.48C631.016 1420.71 609.676 1342.11 649.648 1236.85C699.612 1105.27 637.715 982.323 550.061 866.206C462.406 750.09 494.661 694.912 532.243 653.47C569.826 612.028 629.038 593.8 586.358 434.954Z" fill="black"/>
<path d="M586.358 434.954C552.214 307.877 625.931 249.468 667.058 236.148L1274.61 0.470087L2085.54 2090.96L1477.99 2326.64C1438.64 2344.54 1344.81 2351.12 1284.33 2234.26C1208.73 2088.19 1152.71 2114.66 1097.02 2109.4C1041.32 2104.14 980.293 2085.15 966.714 1940.3C953.135 1795.45 915.93 1662.92 790.308 1599.46C689.81 1548.69 652.559 1476.25 641.787 1448.48C631.016 1420.71 609.676 1342.11 649.648 1236.85C699.612 1105.27 637.715 982.323 550.061 866.206C462.406 750.09 494.661 694.912 532.243 653.47C569.826 612.028 629.038 593.8 586.358 434.954Z" fill="url(#paint1_linear_83_3159)"/>
<path d="M824.182 1004.48C771.003 884.124 834.919 815.128 873.524 795.674L1437.88 469.842L2559.02 2411.7L2394.66 2587.54C2358.51 2611.24 2266.8 2632.1 2189.15 2525.86C2092.1 2393.07 2040.79 2427.8 1984.94 2431.12C1929.1 2434.44 1539.68 2525.17 1430.31 2423.94C1323.54 2325.11 1337.7 2167.59 1203.85 2124.09C1096.77 2089.29 1048.87 2023.4 1033.98 1997.61C1019.09 1971.82 985.978 1897.4 1009.38 1787.26C1038.63 1649.59 958.656 1537.56 854.273 1436.21C749.89 1334.87 773.325 1275.41 804.127 1228.71C834.928 1182 890.656 1154.93 824.182 1004.48Z" fill="black"/>
<path d="M824.182 1004.48C771.003 884.124 834.919 815.128 873.524 795.674L1437.88 469.842L2559.02 2411.7L2394.66 2587.54C2358.51 2611.24 2266.8 2632.1 2189.15 2525.86C2092.1 2393.07 2040.79 2427.8 1984.94 2431.12C1929.1 2434.44 1539.68 2525.17 1430.31 2423.94C1323.54 2325.11 1337.7 2167.59 1203.85 2124.09C1096.77 2089.29 1048.87 2023.4 1033.98 1997.61C1019.09 1971.82 985.978 1897.4 1009.38 1787.26C1038.63 1649.59 958.656 1537.56 854.273 1436.21C749.89 1334.87 773.325 1275.41 804.127 1228.71C834.928 1182 890.656 1154.93 824.182 1004.48Z" fill="url(#paint2_linear_83_3159)"/>
<defs>
<linearGradient id="paint0_linear_83_3159" x1="-349.861" y1="686.805" x2="1641.21" y2="2292.07" gradientUnits="userSpaceOnUse">
<stop stop-color="#ED374D"/>
<stop offset="0.505208" stop-color="#FA793F"/>
<stop offset="1" stop-color="#F7F651"/>
</linearGradient>
<linearGradient id="paint1_linear_83_3159" x1="703.899" y1="337.033" x2="1378.32" y2="2847.28" gradientUnits="userSpaceOnUse">
<stop stop-color="#ED374D"/>
<stop offset="0.505208" stop-color="#FA793F"/>
<stop offset="1" stop-color="#F7F651"/>
</linearGradient>
<linearGradient id="paint2_linear_83_3159" x1="1388.31" y1="498.293" x2="1674.45" y2="3216.59" gradientUnits="userSpaceOnUse">
<stop stop-color="#ED374D"/>
<stop offset="0.505208" stop-color="#FA793F"/>
<stop offset="1" stop-color="#F7F651"/>
</linearGradient>
</defs>
</svg>
